# Blender v3.0.0 OBJ File: 'spaceship.blend'
# www.blender.org
mtllib spaceship.mtl
o Cube
v 1.274220 -0.850455 -1.412576
v 0.779824 0.368003 0.874911
v 1.000000 -1.000000 1.000000
v 0.000000 -1.000000 -1.000000
v 0.000000 0.405977 1.000000
v 0.000000 -1.089889 1.000000
v 2.221892 -0.546368 0.055007
v 2.822395 -0.793933 -0.182905
v 2.018919 -0.009958 1.165901
v 2.813979 -0.756256 0.716641
v 4.649780 -0.490770 1.600953
v 4.913177 -0.608392 1.503251
v 5.027621 -0.467609 2.324617
v 5.027621 -0.614902 2.324617
v 0.840071 -0.800989 -3.591824
v 0.000000 -0.896740 -3.591824
v 0.312724 -0.408808 -4.865273
v 0.350520 -0.686298 -5.065450
v 0.000000 -0.408808 -4.865273
v 0.000000 -0.691303 -5.142793
v 0.000000 0.405977 -1.000000
v 1.069811 0.219782 -0.777881
v 0.000000 -0.056386 -3.638566
v 0.637878 -0.056386 -3.638566
v 0.231700 1.082906 0.816941
v 0.321338 1.002782 1.543566
v 0.000000 1.009840 0.595380
v 0.000000 1.002782 1.543566
v 0.124575 1.236703 1.013259
v 0.218414 1.156579 1.706633
v 0.000000 1.149955 0.812694
v 0.000000 1.142897 1.727629
v 0.000000 1.837733 1.468827
v 0.000000 2.096379 2.087168
v 1.309811 1.133249 1.494545
v 1.383581 1.051675 1.925926
v 1.055703 1.123764 1.399415
v 1.383098 1.051675 2.006491
v 0.000000 -0.042957 -3.591824
v 0.700453 -0.042957 -3.591824
v 0.350520 -0.422236 -4.912014
v 0.000000 -0.422236 -4.974467
v 0.000000 -0.419498 -4.862202
v 0.000000 -0.067076 -3.635494
v 0.637878 -0.067076 -3.635494
v 0.312724 -0.419498 -4.862202
v -1.274220 -0.850455 -1.412576
v -0.779824 0.368003 0.874911
v -1.000000 -1.000000 1.000000
v -2.221892 -0.546368 0.055007
v -2.822395 -0.793933 -0.182905
v -2.018919 -0.009958 1.165901
v -2.813979 -0.756256 0.716641
v -4.649780 -0.490770 1.600953
v -4.913177 -0.608392 1.503251
v -5.027621 -0.467609 2.324617
v -5.027621 -0.614902 2.324617
v -0.840071 -0.800989 -3.591824
v -0.312724 -0.408808 -4.865273
v -0.350520 -0.686298 -5.065450
v -1.069811 0.219782 -0.777881
v -0.637878 -0.056386 -3.638566
v -0.231700 1.082906 0.816941
v -0.321338 1.002782 1.543566
v -0.124575 1.236703 1.013259
v -0.218414 1.156579 1.706633
v -1.309811 1.133249 1.494545
v -1.383581 1.051675 1.925926
v -1.055703 1.123764 1.399415
v -1.383098 1.051675 2.006491
v -0.700453 -0.042957 -3.591824
v -0.350520 -0.422236 -4.912014
v -0.637878 -0.067076 -3.635494
v -0.312724 -0.419498 -4.862202
vt 0.071824 0.177137
vt 0.071824 0.177137
vt 0.071824 0.177137
vt 0.071824 0.177137
vt 0.071824 0.177137
vt 0.071824 0.177137
vt 0.071824 0.177137
vt 0.071824 0.177137
vt 0.071824 0.177137
vt 0.071824 0.177137
vt 0.071824 0.177137
vt 0.071824 0.177137
vt 0.071824 0.177137
vt 0.071824 0.177137
vt 0.071824 0.177137
vt 0.071824 0.177137
vt 0.071824 0.177137
vt 0.071824 0.177137
vt 0.071824 0.177137
vt 0.071824 0.177137
vt 0.071824 0.177137
vt 0.071824 0.177137
vt 0.071824 0.177137
vt 0.071824 0.177137
vt 0.071824 0.177137
vt 0.071824 0.177137
vt 0.071824 0.177137
vt 0.071824 0.177137
vt 0.071824 0.177137
vt 0.071824 0.177137
vt 0.071824 0.177137
vt 0.071824 0.177137
vt 0.071824 0.177137
vt 0.071824 0.177137
vt 0.071824 0.177137
vt 0.071824 0.177137
vt 0.071824 0.177137
vt 0.071824 0.177137
vt 0.071824 0.177137
vt 0.071824 0.177137
vt 0.071824 0.177137
vt 0.071824 0.177137
vt 0.071824 0.177137
vt 0.071824 0.177137
vt 0.047216 0.177137
vt 0.047216 0.177137
vt 0.047216 0.177137
vt 0.047216 0.177137
vt 0.071824 0.177137
vt 0.071824 0.177137
vt 0.071824 0.177137
vt 0.071824 0.177137
vt 0.071824 0.177137
vt 0.071824 0.177137
vt 0.071824 0.177137
vt 0.071824 0.177137
vt 0.071824 0.177137
vt 0.071824 0.177137
vt 0.071824 0.177137
vt 0.071824 0.177137
vt 0.071824 0.177137
vt 0.071824 0.177137
vt 0.071824 0.177137
vt 0.071824 0.177137
vt 0.071824 0.177137
vt 0.071824 0.177137
vt 0.071824 0.177137
vt 0.071824 0.177137
vt 0.071824 0.177137
vt 0.071824 0.177137
vt 0.071824 0.177137
vt 0.071824 0.177137
vt 0.071824 0.177137
vt 0.071824 0.177137
vt 0.071824 0.177137
vt 0.071824 0.177137
vt 0.071824 0.177137
vt 0.071824 0.177137
vt 0.047216 0.177137
vt 0.047216 0.177137
vn 0.0960 -0.9942 -0.0480
vn 0.0960 -0.9951 -0.0254
vn 0.1071 -0.9934 -0.0415
vn 0.2032 0.9088 -0.3645
vn 0.0686 0.0488 0.9964
vn 0.2197 0.9271 -0.3037
vn -0.0093 -0.1559 0.9877
vn 0.4771 0.8692 -0.1302
vn 0.5547 0.6676 -0.4965
vn 0.6516 0.7273 -0.2155
vn 0.2281 0.8940 -0.3856
vn 0.0650 -0.9978 0.0141
vn -0.3814 -0.6631 0.6441
vn -0.9690 0.0682 0.2373
vn 0.9575 0.2372 -0.1642
vn 0.1648 0.5097 -0.8445
vn 0.0914 -0.9886 -0.1194
vn 0.9386 0.1730 -0.2984
vn 0.1207 0.9831 -0.1377
vn 0.2465 0.8190 -0.5181
vn 0.7907 0.6102 0.0491
vn 0.0583 -0.6892 0.7222
vn 0.5647 0.5697 -0.5971
vn 0.0446 -0.7559 0.6532
vn -0.1671 -0.8642 0.4746
vn 0.1114 -0.3506 0.9299
vn -0.0461 0.9854 0.1636
vn 0.1218 -0.9805 -0.1541
vn 0.2404 0.8835 -0.4020
vn 0.0729 0.9930 0.0926
vn 0.9571 0.2701 -0.1052
vn 0.0000 0.9611 -0.2761
vn 0.0156 0.9860 -0.1660
vn 0.0000 0.2761 0.9611
vn 0.0000 -0.2761 -0.9611
vn -0.0960 -0.9942 -0.0480
vn -0.0960 -0.9951 -0.0254
vn -0.1071 -0.9934 -0.0415
vn -0.2032 0.9088 -0.3645
vn -0.0686 0.0488 0.9964
vn -0.2197 0.9271 -0.3037
vn 0.0093 -0.1559 0.9877
vn -0.4771 0.8692 -0.1302
vn -0.5547 0.6676 -0.4965
vn -0.6516 0.7273 -0.2155
vn -0.2281 0.8940 -0.3856
vn -0.0650 -0.9978 0.0141
vn 0.3814 -0.6631 0.6441
vn 0.9690 0.0682 0.2373
vn -0.9575 0.2372 -0.1642
vn -0.1648 0.5097 -0.8445
vn -0.0914 -0.9886 -0.1194
vn -0.9386 0.1730 -0.2984
vn -0.1207 0.9831 -0.1377
vn -0.2465 0.8190 -0.5181
vn -0.7907 0.6102 0.0491
vn -0.0583 -0.6892 0.7222
vn -0.5647 0.5697 -0.5971
vn -0.0446 -0.7559 0.6532
vn 0.1671 -0.8642 0.4746
vn -0.1114 -0.3506 0.9299
vn 0.0461 0.9854 0.1636
vn -0.1218 -0.9805 -0.1541
vn -0.2404 0.8835 -0.4020
vn -0.0729 0.9930 0.0926
vn -0.9571 0.2701 -0.1052
vn -0.0156 0.9860 -0.1660
usemtl Material
s off
f 4/1/1 1/2/1 3/3/1 6/4/1
f 3/3/2 1/2/2 8/5/2 10/6/2
f 1/2/3 4/1/3 16/7/3 15/8/3
f 22/9/4 21/10/4 27/11/4 25/12/4
f 3/3/5 2/13/5 5/14/5 6/4/5
f 7/15/6 9/16/6 13/17/6 11/18/6
f 2/13/7 3/3/7 10/6/7 9/16/7
f 22/9/8 2/13/8 9/16/8 7/15/8
f 1/2/9 22/9/9 7/15/9 8/5/9
f 12/19/10 11/18/10 13/17/10 14/20/10
f 8/5/11 7/15/11 11/18/11 12/19/11
f 10/6/12 8/5/12 12/19/12 14/20/12
f 9/16/13 10/6/13 14/20/13 13/17/13
f 24/21/14 17/22/14 46/23/14 45/24/14
f 22/9/15 1/2/15 15/8/15 40/25/15
f 20/26/16 42/27/16 41/28/16 18/29/16
f 15/8/17 16/7/17 20/26/17 18/29/17
f 40/25/18 15/8/18 18/29/18 41/28/18
f 40/25/19 39/30/19 21/10/19 22/9/19
f 25/12/20 27/11/20 31/31/20 29/32/20
f 2/13/21 22/9/21 25/12/21 26/33/21
f 5/14/22 2/13/22 26/33/22 28/34/22
f 29/32/23 31/31/23 33/35/23
f 28/34/24 26/33/24 30/36/24 32/37/24
f 30/36/25 26/33/25 36/38/25 38/39/25
f 32/37/26 30/36/26 34/40/26
f 36/38/27 35/41/27 37/42/27 38/39/27
f 26/33/28 25/12/28 35/41/28 36/38/28
f 25/12/29 29/32/29 37/42/29 35/41/29
f 29/32/30 30/36/30 38/39/30 37/42/30
f 30/36/31 29/32/31 33/35/31 34/40/31
f 24/21/32 23/43/32 39/30/32 40/25/32
f 17/22/32 24/21/32 40/25/32 41/28/32
f 19/44/33 17/22/33 41/28/33 42/27/33
f 44/45/32 45/46/32 46/47/32 43/48/32
f 17/22/34 19/44/34 43/49/34 46/23/34
f 23/43/35 24/21/35 45/24/35 44/50/35
f 4/1/36 6/4/36 49/51/36 47/52/36
f 49/51/37 53/53/37 51/54/37 47/52/37
f 47/52/38 58/55/38 16/7/38 4/1/38
f 61/56/39 63/57/39 27/11/39 21/10/39
f 49/51/40 6/4/40 5/14/40 48/58/40
f 50/59/41 54/60/41 56/61/41 52/62/41
f 48/58/42 52/62/42 53/53/42 49/51/42
f 61/56/43 50/59/43 52/62/43 48/58/43
f 47/52/44 51/54/44 50/59/44 61/56/44
f 55/63/45 57/64/45 56/61/45 54/60/45
f 51/54/46 55/63/46 54/60/46 50/59/46
f 53/53/47 57/64/47 55/63/47 51/54/47
f 52/62/48 56/61/48 57/64/48 53/53/48
f 62/65/49 73/66/49 74/67/49 59/68/49
f 61/56/50 71/69/50 58/55/50 47/52/50
f 20/26/51 60/70/51 72/71/51 42/27/51
f 58/55/52 60/70/52 20/26/52 16/7/52
f 71/69/53 72/71/53 60/70/53 58/55/53
f 71/69/54 61/56/54 21/10/54 39/30/54
f 63/57/55 65/72/55 31/31/55 27/11/55
f 48/58/56 64/73/56 63/57/56 61/56/56
f 5/14/57 28/34/57 64/73/57 48/58/57
f 65/72/58 33/35/58 31/31/58
f 28/34/59 32/37/59 66/74/59 64/73/59
f 66/74/60 70/75/60 68/76/60 64/73/60
f 32/37/61 34/40/61 66/74/61
f 68/76/62 70/75/62 69/77/62 67/78/62
f 64/73/63 68/76/63 67/78/63 63/57/63
f 63/57/64 67/78/64 69/77/64 65/72/64
f 65/72/65 69/77/65 70/75/65 66/74/65
f 66/74/66 34/40/66 33/35/66 65/72/66
f 62/65/32 71/69/32 39/30/32 23/43/32
f 59/68/32 72/71/32 71/69/32 62/65/32
f 19/44/67 42/27/67 72/71/67 59/68/67
f 44/45/32 43/48/32 74/79/32 73/80/32
f 59/68/34 74/67/34 43/49/34 19/44/34
f 23/43/35 44/50/35 73/66/35 62/65/35
